{
  "accessors": [
    {
      "name": "Teapot01_1_0_positions",
      "componentType": 5126,
      "count": 2276,
      "min": [
        -30.826000213623047,
        -19.68400001525879,
        0
      ],
      "max": [
        36.48910140991211,
        22.171100616455078,
        32.960899353027344
      ],
      "type": "VEC3",
      "bufferView": 0,
      "byteOffset": 0
    },
    {
      "name": "Teapot01_1_0_normals",
      "componentType": 5126,
      "count": 2276,
      "min": [
        -0.9995793700218201,
        -0.9999986886978149,
        -1
      ],
      "max": [
        0.9994012117385864,
        0.9999988675117493,
        1
      ],
      "type": "VEC3",
      "bufferView": 1,
      "byteOffset": 0
    },
    {
      "name": "Teapot01_1_0_texcoords",
      "componentType": 5126,
      "count": 2276,
      "min": [
        0,
        -64.74590301513672
      ],
      "max": [
        65.74590301513672,
        1
      ],
      "type": "VEC2",
      "bufferView": 2,
      "byteOffset": 0
    },
    {
      "name": "Teapot01_1_0_indices",
      "componentType": 5123,
      "count": 12096,
      "min": [
        0
      ],
      "max": [
        2275
      ],
      "type": "SCALAR",
      "bufferView": 3,
      "byteOffset": 0
    }
  ],
  "asset": {
    "generator": "obj2gltf",
    "version": "2.0"
  },
  "buffers": [
    {
      "name": "teapot",
      "byteLength": 97024,
      "uri": "data:application/octet-stream;base64,"
    }
  ],
  "bufferViews": [
    {
      "name": "bufferView_0",
      "buffer": 0,
      "byteLength": 27312,
      "byteOffset": 0,
      "byteStride": 12,
      "target": 34962
    },
    {
      "name": "bufferView_1",
      "buffer": 0,
      "byteLength": 27312,
      "byteOffset": 27312,
      "byteStride": 12,
      "target": 34962
    },
    {
      "name": "bufferView_2",
      "buffer": 0,
      "byteLength": 18208,
      "byteOffset": 54624,
      "byteStride": 8,
      "target": 34962
    },
    {
      "name": "bufferView_3",
      "buffer": 0,
      "byteLength": 24192,
      "byteOffset": 72832,
      "target": 34963
    }
  ],
  "materials": [
    {
      "name": "default",
      "pbrMetallicRoughness": {
        "baseColorFactor": [
          0.5,
          0.5,
          0.5,
          1
        ],
        "metallicFactor": 0,
        "roughnessFactor": 1
      },
      "emissiveFactor": [
        0,
        0,
        0
      ],
      "alphaMode": "OPAQUE",
      "doubleSided": false
    }
  ],
  "meshes": [
    {
      "name": "Teapot01_1",
      "primitives": [
        {
          "attributes": {
            "POSITION": 0,
            "NORMAL": 1,
            "TEXCOORD_0": 2
          },
          "indices": 3,
          "material": 0,
          "mode": 4
        }
      ]
    }
  ],
  "nodes": [
    {
      "name": "Teapot01",
      "mesh": 0
    }
  ],
  "scene": 0,
  "scenes": [
    {
      "nodes": [
        0
      ]
    }
  ]
}
